<svg width="22" height="22" viewBox="0 0 22 22" fill="none" xmlns="http://www.w3.org/2000/svg">
<rect width="22" height="22" rx="2.46154" transform="matrix(-1 0 0 1 22 0)" fill="#E9ECEF"/>
<path d="M15.25 6.61111H12.9583L12.7674 6.26736C12.691 6.11458 12.5382 6 12.3663 6H10.1701C9.99826 6 9.84549 6.11458 9.7691 6.26736L9.59722 6.61111H7.30556C7.13368 6.61111 7 6.76389 7 6.91667V7.52778C7 7.69965 7.13368 7.83333 7.30556 7.83333H15.25C15.4028 7.83333 15.5556 7.69965 15.5556 7.52778V6.91667C15.5556 6.76389 15.4028 6.61111 15.25 6.61111ZM8.01215 14.9184C8.03125 15.4149 8.43229 15.7778 8.92882 15.7778H13.6076C14.1042 15.7778 14.5052 15.4149 14.5243 14.9184L14.9444 8.44444H7.61111L8.01215 14.9184Z" fill="#868E96"/>
</svg>
