<svg width="23" height="22" viewBox="0 0 23 22" fill="none" xmlns="http://www.w3.org/2000/svg">
<rect width="22" height="22" rx="2.46154" transform="matrix(-1 0 0 1 22.1538 0)" fill="#868E96"/>
<path d="M15.3611 6.7222H13.0694L12.8784 6.37845C12.8021 6.22567 12.6493 6.11108 12.4774 6.11108H10.2812C10.1093 6.11108 9.95657 6.22567 9.88018 6.37845L9.70831 6.7222H7.41664C7.24476 6.7222 7.11108 6.87497 7.11108 7.02775V7.63886C7.11108 7.81074 7.24476 7.94442 7.41664 7.94442H15.3611C15.5139 7.94442 15.6666 7.81074 15.6666 7.63886V7.02775C15.6666 6.87497 15.5139 6.7222 15.3611 6.7222ZM8.12324 15.0295C8.14233 15.526 8.54338 15.8889 9.0399 15.8889H13.7187C14.2153 15.8889 14.6163 15.526 14.6354 15.0295L15.0555 8.55553H7.7222L8.12324 15.0295Z" fill="#F8F9FA"/>
</svg>
